HIERARCHY
ROOT Hips
{
	OFFSET -0.001795 -0.223333 0.028219
	CHANNELS 6 Xposition Yposition Zposition Zrotation Yrotation Xrotation 
	JOINT LeftUpLeg
	{
		OFFSET 0.069520 -0.091406 -0.006815
		CHANNELS 3 Zrotation Yrotation Xrotation
		JOINT LeftLeg
		{
			OFFSET 0.034277 -0.375199 -0.004496
			CHANNELS 3 Zrotation Yrotation Xrotation
			JOINT LeftFoot
			{
				OFFSET -0.013596 -0.397961 -0.043693
				CHANNELS 3 Zrotation Yrotation Xrotation
				JOINT LeftToe
				{
					OFFSET 0.026358 -0.055791 0.119288
					CHANNELS 3 Zrotation Yrotation Xrotation
					End Site
					{
						OFFSET 0.000000 0.000000 0.000000
					}
				}
			}
		}
	}
	JOINT RightUpLeg
	{
		OFFSET -0.067670 -0.090522 -0.004320
		CHANNELS 3 Zrotation Yrotation Xrotation
		JOINT RightLeg
		{
			OFFSET -0.038290 -0.382569 -0.008850
			CHANNELS 3 Zrotation Yrotation Xrotation
			JOINT RightFoot
			{
				OFFSET 0.015774 -0.398415 -0.042312
				CHANNELS 3 Zrotation Yrotation Xrotation
				JOINT RightToe
				{
					OFFSET -0.025372 -0.048144 0.123348
					CHANNELS 3 Zrotation Yrotation Xrotation
					End Site
					{
						OFFSET 0.000000 0.000000 0.000000
					}
				}
			}
		}
	}
	JOINT Spine
	{
		OFFSET -0.002533 0.108963 -0.026696
		CHANNELS 3 Zrotation Yrotation Xrotation
		JOINT Spine1
		{
			OFFSET 0.005487 0.135180 0.001092
			CHANNELS 3 Zrotation Yrotation Xrotation
			JOINT Spine2
			{
				OFFSET 0.001457 0.052922 0.025425
				CHANNELS 3 Zrotation Yrotation Xrotation
				JOINT Neck
				{
					OFFSET -0.002778 0.213870 -0.042857
					CHANNELS 3 Zrotation Yrotation Xrotation
					JOINT Head
					{
						OFFSET 0.005152 0.064970 0.051349
						CHANNELS 3 Zrotation Yrotation Xrotation
						End Site
						{
							OFFSET 0.000000 0.000000 0.000000
						}
					}
				}
				JOINT LeftShoulder
				{
					OFFSET 0.078845 0.121749 -0.034090
					CHANNELS 3 Zrotation Yrotation Xrotation
					JOINT LeftArm
					{
						OFFSET 0.090977 0.030469 -0.008868
						CHANNELS 3 Zrotation Yrotation Xrotation
						JOINT LeftForeArm
						{
							OFFSET 0.259612 -0.012772 -0.027456
							CHANNELS 3 Zrotation Yrotation Xrotation
							JOINT LeftHand
							{
								OFFSET 0.249234 0.008986 -0.001171
								CHANNELS 3 Zrotation Yrotation Xrotation
								End Site
								{
									OFFSET 0.000000 0.000000 0.000000
								}
							}
						}
					}
				}
				JOINT RightShoulder
				{
					OFFSET -0.081759 0.118833 -0.038615
					CHANNELS 3 Zrotation Yrotation Xrotation
					JOINT RightArm
					{
						OFFSET -0.096012 0.032551 -0.009143
						CHANNELS 3 Zrotation Yrotation Xrotation
						JOINT RightForeArm
						{
							OFFSET -0.253742 -0.013329 -0.021401
							CHANNELS 3 Zrotation Yrotation Xrotation
							JOINT RightHand
							{
								OFFSET -0.255298 0.007772 -0.005559
								CHANNELS 3 Zrotation Yrotation Xrotation
								End Site
								{
									OFFSET 0.000000 0.000000 0.000000
								}
							}
						}
					}
				}
			}
		}
	}
}
MOTION
Frames: 6
Frame Time: 0.050000
0.000000 0.953202 0.000000 -0.109622 -6.213174 2.095173 4.699925 0.099128 2.054359 -1.606431 0.271344 -3.842063 10.063060 20.126218 13.701145 0.000000 0.000000 0.000000 -5.348190 0.207286 0.478906 3.437020 -0.340024 -3.523641 -0.553492 -2.176142 1.384879 0.000000 0.000000 0.000000 7.333203 -0.736534 6.313794 -7.337935 2.309684 -22.715449 -1.544485 8.155000 26.886794 10.614416 -3.850372 -26.552561 0.000000 0.000000 0.000000 -22.071689 -10.846179 3.798054 -48.854700 -7.013651 -5.044246 -4.731447 -26.077274 2.175456 0.000000 0.000000 0.000000 29.020102 -1.204804 -1.098953 54.086717 9.097216 -4.125047 6.572920 27.473060 3.056145 0.000000 0.000000 0.000000 
0.000100 0.951558 -0.000008 -0.151271 -6.059098 2.199044 4.933849 0.121961 2.597443 -1.916406 0.321999 -5.012944 9.955003 19.988242 13.421345 0.000000 0.000000 0.000000 -5.115171 0.205879 0.251459 2.902847 -0.307767 -3.299385 -0.567238 -2.009255 1.024885 0.000000 0.000000 0.000000 7.665885 -0.701514 5.736375 -7.722309 2.440167 -21.963184 -2.142414 8.185931 26.362773 10.760025 -3.648078 -27.907211 0.000000 0.000000 0.000000 -21.440832 -10.189581 3.363511 -49.040236 -7.197635 -4.949793 -4.341564 -26.774989 2.138064 0.000000 0.000000 0.000000 29.133853 -1.484979 -1.263139 55.309262 8.779962 -4.251663 6.522934 28.248002 3.176371 0.000000 0.000000 0.000000 
0.000160 0.951542 -0.000154 -0.050227 -5.812700 2.067815 5.114619 0.080601 1.930885 -2.379576 0.336620 -3.698122 9.886900 19.910320 13.036044 0.000000 0.000000 0.000000 -5.266964 0.196881 0.494313 2.886010 -0.313757 -3.743605 -0.509759 -2.122289 1.491835 0.000000 0.000000 0.000000 7.753596 -0.661719 5.323226 -8.027549 2.527086 -22.003610 -1.881647 7.474195 27.078711 10.471202 -3.750625 -27.147263 0.000000 0.000000 0.000000 -22.023209 -10.612436 3.815311 -48.438925 -7.772078 -4.791538 -4.241495 -25.623413 2.042044 0.000000 0.000000 0.000000 29.215028 -1.012809 -1.137513 54.743423 8.924540 -4.214254 6.964411 27.724335 3.172779 0.000000 0.000000 0.000000 
0.000099 0.951546 -0.000093 0.108144 -5.918114 1.938755 5.152611 0.103220 2.317970 -2.760648 0.376992 -4.123624 9.872023 19.881481 13.148290 0.000000 0.000000 0.000000 -5.674229 0.209729 0.669575 3.291310 -0.336799 -3.857226 -0.455871 -2.003691 1.510788 0.000000 0.000000 0.000000 7.885012 -0.639989 5.088768 -8.229046 2.590431 -21.838596 -2.122673 7.600416 27.288879 10.766305 -3.955817 -26.959879 0.000000 0.000000 0.000000 -22.094759 -10.848850 3.937999 -48.390823 -7.800521 -4.784330 -3.939197 -26.769396 2.071434 0.000000 0.000000 0.000000 29.614333 -1.147562 -1.211373 54.385103 9.269520 -4.094809 7.404435 27.969327 3.321597 0.000000 0.000000 0.000000 
0.000030 0.951993 -0.000089 0.135115 -5.795737 1.598987 5.154637 0.111262 2.422183 -2.776277 0.372928 -3.694400 9.794141 19.772725 13.108109 0.000000 0.000000 0.000000 -5.599863 0.185124 0.999230 3.130629 -0.328361 -3.748877 -0.482891 -2.071755 1.519952 0.000000 0.000000 0.000000 7.544532 -0.628528 5.217424 -7.514125 2.426009 -21.211737 -2.455958 7.494423 26.685002 10.562394 -3.975265 -26.063969 0.000000 0.000000 0.000000 -22.217462 -10.460873 3.679930 -48.453833 -8.075390 -4.622395 -4.413125 -27.122678 2.209356 0.000000 0.000000 0.000000 29.639698 -1.080510 -1.192008 54.107514 9.168049 -4.069681 7.469646 28.016477 3.327807 0.000000 0.000000 0.000000 
-0.000002 0.952205 -0.000088 0.192886 -5.818830 1.588714 5.196681 0.114557 2.495322 -2.960797 0.391019 -3.810577 9.775986 19.741402 13.194974 0.000000 0.000000 0.000000 -5.730390 0.187871 1.105060 3.160959 -0.330694 -3.840470 -0.391329 -1.842530 1.504912 0.000000 0.000000 0.000000 7.422424 -0.605158 5.051131 -7.491300 2.412585 -21.386750 -2.416715 7.411786 26.931756 10.574979 -3.985572 -26.223197 0.000000 0.000000 0.000000 -22.129874 -10.421606 3.703069 -48.236025 -8.229921 -4.583707 -4.936982 -27.861210 2.409065 0.000000 0.000000 0.000000 29.615334 -0.901415 -1.100254 53.861124 9.265194 -4.040240 7.693651 27.887950 3.352314 0.000000 0.000000 0.000000 
